<mxfile host="app.diagrams.net" modified="2023-07-31T15:14:33.841Z" agent="Mozilla/5.0 (Windows NT 10.0; Win64; x64) AppleWebKit/537.36 (KHTML, like Gecko) Chrome/115.0.0.0 Safari/537.36" etag="FkSueDk0z18SUTS1bSNL" version="21.6.6" type="google">
  <diagram name="Page-1" id="zNvY1Q-mkukfnYkPsvm0">
    <mxGraphModel dx="2074" dy="1189" grid="1" gridSize="1" guides="1" tooltips="1" connect="1" arrows="1" fold="1" page="1" pageScale="1" pageWidth="1100" pageHeight="850" background="none" math="0" shadow="0">
      <root>
        <mxCell id="0" />
        <mxCell id="1" parent="0" />
        <mxCell id="tielwtdL6aNshVI9huWp-19" value="" style="line;strokeWidth=1;html=1;" parent="1" vertex="1">
          <mxGeometry x="829" y="255" width="92" height="10" as="geometry" />
        </mxCell>
        <mxCell id="7KXzsBWlIjj5Nd3kiOQj-5" style="edgeStyle=orthogonalEdgeStyle;rounded=0;orthogonalLoop=1;jettySize=auto;html=1;exitX=1;exitY=1;exitDx=0;exitDy=0;entryX=1;entryY=0;entryDx=0;entryDy=0;" parent="1" source="GI8vclBK96SNwWwCd37V-1" target="GI8vclBK96SNwWwCd37V-5" edge="1">
          <mxGeometry relative="1" as="geometry" />
        </mxCell>
        <mxCell id="GI8vclBK96SNwWwCd37V-1" value="waveform = not ACTIVE" style="ellipse;whiteSpace=wrap;html=1;" parent="1" vertex="1">
          <mxGeometry x="406" y="176" width="120" height="80" as="geometry" />
        </mxCell>
        <mxCell id="GI8vclBK96SNwWwCd37V-2" value="WAIT_FOR_EN" style="text;html=1;align=center;verticalAlign=middle;resizable=0;points=[];autosize=1;strokeColor=none;fillColor=none;" parent="1" vertex="1">
          <mxGeometry x="415" y="153" width="104" height="27" as="geometry" />
        </mxCell>
        <mxCell id="GI8vclBK96SNwWwCd37V-14" value="not txMode" style="text;html=1;align=center;verticalAlign=middle;resizable=0;points=[];autosize=1;strokeColor=none;fillColor=none;" parent="1" vertex="1">
          <mxGeometry x="259" y="421" width="78" height="27" as="geometry" />
        </mxCell>
        <mxCell id="GI8vclBK96SNwWwCd37V-21" value="txMode" style="text;html=1;align=center;verticalAlign=middle;resizable=0;points=[];autosize=1;strokeColor=none;fillColor=none;" parent="1" vertex="1">
          <mxGeometry x="506" y="249" width="58" height="27" as="geometry" />
        </mxCell>
        <mxCell id="GI8vclBK96SNwWwCd37V-24" value="goNextState" style="text;html=1;align=center;verticalAlign=middle;resizable=0;points=[];autosize=1;strokeColor=none;fillColor=none;" parent="1" vertex="1">
          <mxGeometry x="503" y="366" width="85" height="27" as="geometry" />
        </mxCell>
        <mxCell id="GI8vclBK96SNwWwCd37V-31" value="goNextState" style="text;html=1;align=center;verticalAlign=middle;resizable=0;points=[];autosize=1;strokeColor=none;fillColor=none;" parent="1" vertex="1">
          <mxGeometry x="503" y="479" width="85" height="27" as="geometry" />
        </mxCell>
        <mxCell id="GI8vclBK96SNwWwCd37V-35" value="txMode" style="text;html=1;align=center;verticalAlign=middle;resizable=0;points=[];autosize=1;strokeColor=none;fillColor=none;" parent="1" vertex="1">
          <mxGeometry x="617" y="482" width="58" height="27" as="geometry" />
        </mxCell>
        <mxCell id="7KXzsBWlIjj5Nd3kiOQj-4" value="" style="group" parent="1" connectable="0" vertex="1">
          <mxGeometry x="406" y="499" width="120" height="100" as="geometry" />
        </mxCell>
        <mxCell id="GI8vclBK96SNwWwCd37V-11" value="waveform = not ACTIVE" style="ellipse;whiteSpace=wrap;html=1;" parent="7KXzsBWlIjj5Nd3kiOQj-4" vertex="1">
          <mxGeometry y="20" width="120" height="80" as="geometry" />
        </mxCell>
        <mxCell id="GI8vclBK96SNwWwCd37V-12" value="THIRD" style="text;html=1;align=center;verticalAlign=middle;resizable=0;points=[];autosize=1;strokeColor=none;fillColor=none;" parent="7KXzsBWlIjj5Nd3kiOQj-4" vertex="1">
          <mxGeometry x="31" width="56" height="27" as="geometry" />
        </mxCell>
        <mxCell id="GI8vclBK96SNwWwCd37V-23" style="edgeStyle=orthogonalEdgeStyle;rounded=0;orthogonalLoop=1;jettySize=auto;html=1;exitX=1;exitY=1;exitDx=0;exitDy=0;entryX=1;entryY=0;entryDx=0;entryDy=0;" parent="1" source="GI8vclBK96SNwWwCd37V-5" target="GI8vclBK96SNwWwCd37V-9" edge="1">
          <mxGeometry relative="1" as="geometry" />
        </mxCell>
        <mxCell id="GI8vclBK96SNwWwCd37V-5" value="waveform = ACTIVE" style="ellipse;whiteSpace=wrap;html=1;" parent="1" vertex="1">
          <mxGeometry x="406" y="290" width="120" height="80" as="geometry" />
        </mxCell>
        <mxCell id="GI8vclBK96SNwWwCd37V-6" value="FIRST" style="text;html=1;align=center;verticalAlign=middle;resizable=0;points=[];autosize=1;strokeColor=none;fillColor=none;" parent="1" vertex="1">
          <mxGeometry x="439.5" y="267" width="54" height="27" as="geometry" />
        </mxCell>
        <mxCell id="7KXzsBWlIjj5Nd3kiOQj-6" style="edgeStyle=orthogonalEdgeStyle;rounded=0;orthogonalLoop=1;jettySize=auto;html=1;exitX=1;exitY=1;exitDx=0;exitDy=0;entryX=1;entryY=0;entryDx=0;entryDy=0;" parent="1" source="GI8vclBK96SNwWwCd37V-9" target="GI8vclBK96SNwWwCd37V-11" edge="1">
          <mxGeometry relative="1" as="geometry" />
        </mxCell>
        <mxCell id="GI8vclBK96SNwWwCd37V-9" value="waveform = dataBit" style="ellipse;whiteSpace=wrap;html=1;" parent="1" vertex="1">
          <mxGeometry x="406" y="406" width="120" height="80" as="geometry" />
        </mxCell>
        <mxCell id="GI8vclBK96SNwWwCd37V-10" value="SECOND" style="text;html=1;align=center;verticalAlign=middle;resizable=0;points=[];autosize=1;strokeColor=none;fillColor=none;" parent="1" vertex="1">
          <mxGeometry x="431.5" y="383" width="70" height="27" as="geometry" />
        </mxCell>
        <mxCell id="7KXzsBWlIjj5Nd3kiOQj-7" value="" style="group" parent="1" connectable="0" vertex="1">
          <mxGeometry x="406.5" y="607" width="120" height="102" as="geometry" />
        </mxCell>
        <mxCell id="7KXzsBWlIjj5Nd3kiOQj-1" value="waveform = not ACTIVE&lt;br&gt;txDone = ACTIVE" style="ellipse;whiteSpace=wrap;html=1;" parent="7KXzsBWlIjj5Nd3kiOQj-7" vertex="1">
          <mxGeometry y="22" width="120" height="80" as="geometry" />
        </mxCell>
        <mxCell id="7KXzsBWlIjj5Nd3kiOQj-2" value="DONE" style="text;html=1;align=center;verticalAlign=middle;resizable=0;points=[];autosize=1;strokeColor=none;fillColor=none;" parent="7KXzsBWlIjj5Nd3kiOQj-7" vertex="1">
          <mxGeometry x="34" width="54" height="27" as="geometry" />
        </mxCell>
        <mxCell id="7KXzsBWlIjj5Nd3kiOQj-8" style="edgeStyle=orthogonalEdgeStyle;rounded=0;orthogonalLoop=1;jettySize=auto;html=1;exitX=1;exitY=1;exitDx=0;exitDy=0;entryX=1;entryY=0;entryDx=0;entryDy=0;" parent="1" source="GI8vclBK96SNwWwCd37V-11" target="7KXzsBWlIjj5Nd3kiOQj-1" edge="1">
          <mxGeometry relative="1" as="geometry" />
        </mxCell>
        <mxCell id="7KXzsBWlIjj5Nd3kiOQj-9" value="thirdNextState" style="text;html=1;align=center;verticalAlign=middle;resizable=0;points=[];autosize=1;strokeColor=none;fillColor=none;" parent="1" vertex="1">
          <mxGeometry x="511" y="593" width="95" height="27" as="geometry" />
        </mxCell>
        <mxCell id="7KXzsBWlIjj5Nd3kiOQj-10" style="edgeStyle=orthogonalEdgeStyle;rounded=0;orthogonalLoop=1;jettySize=auto;html=1;exitX=0;exitY=0.5;exitDx=0;exitDy=0;entryX=0;entryY=0.5;entryDx=0;entryDy=0;curved=1;" parent="1" source="7KXzsBWlIjj5Nd3kiOQj-1" target="GI8vclBK96SNwWwCd37V-1" edge="1">
          <mxGeometry relative="1" as="geometry">
            <Array as="points">
              <mxPoint x="263" y="669" />
              <mxPoint x="263" y="216" />
            </Array>
          </mxGeometry>
        </mxCell>
        <mxCell id="7KXzsBWlIjj5Nd3kiOQj-11" style="edgeStyle=orthogonalEdgeStyle;rounded=0;orthogonalLoop=1;jettySize=auto;html=1;exitX=1;exitY=0.5;exitDx=0;exitDy=0;entryX=1;entryY=0.5;entryDx=0;entryDy=0;curved=1;" parent="1" source="7KXzsBWlIjj5Nd3kiOQj-1" target="GI8vclBK96SNwWwCd37V-5" edge="1">
          <mxGeometry relative="1" as="geometry">
            <Array as="points">
              <mxPoint x="668" y="669" />
              <mxPoint x="668" y="330" />
            </Array>
          </mxGeometry>
        </mxCell>
        <mxCell id="tielwtdL6aNshVI9huWp-5" value="BIT_ENCODER" style="text;html=1;strokeColor=none;fillColor=none;align=center;verticalAlign=middle;whiteSpace=wrap;rounded=0;" parent="1" vertex="1">
          <mxGeometry x="700" y="142" width="60" height="30" as="geometry" />
        </mxCell>
        <mxCell id="tielwtdL6aNshVI9huWp-1" value="" style="line;strokeWidth=1;html=1;" parent="1" vertex="1">
          <mxGeometry x="638" y="260" width="192" height="10" as="geometry" />
        </mxCell>
        <mxCell id="tielwtdL6aNshVI9huWp-2" value="" style="line;strokeWidth=1;html=1;" parent="1" vertex="1">
          <mxGeometry x="633" y="286" width="194" height="10" as="geometry" />
        </mxCell>
        <mxCell id="tielwtdL6aNshVI9huWp-3" value="" style="line;strokeWidth=1;html=1;" parent="1" vertex="1">
          <mxGeometry x="827" y="202" width="92" height="10" as="geometry" />
        </mxCell>
        <mxCell id="tielwtdL6aNshVI9huWp-6" value="" style="line;strokeWidth=1;html=1;" parent="1" vertex="1">
          <mxGeometry x="615" y="179" width="105" height="10" as="geometry" />
        </mxCell>
        <mxCell id="tielwtdL6aNshVI9huWp-7" value="" style="line;strokeWidth=1;html=1;" parent="1" vertex="1">
          <mxGeometry x="617" y="204" width="88" height="10" as="geometry" />
        </mxCell>
        <mxCell id="tielwtdL6aNshVI9huWp-8" value="" style="whiteSpace=wrap;html=1;aspect=fixed;" parent="1" vertex="1">
          <mxGeometry x="688" y="166" width="147" height="147" as="geometry" />
        </mxCell>
        <mxCell id="tielwtdL6aNshVI9huWp-11" value="reset" style="text;html=1;align=center;verticalAlign=middle;resizable=0;points=[];autosize=1;strokeColor=none;fillColor=none;" parent="1" vertex="1">
          <mxGeometry x="630" y="269" width="46" height="27" as="geometry" />
        </mxCell>
        <mxCell id="tielwtdL6aNshVI9huWp-12" value="clock" style="text;html=1;align=center;verticalAlign=middle;resizable=0;points=[];autosize=1;strokeColor=none;fillColor=none;" parent="1" vertex="1">
          <mxGeometry x="635" y="245" width="46" height="27" as="geometry" />
        </mxCell>
        <mxCell id="tielwtdL6aNshVI9huWp-14" value="waveform" style="text;html=1;align=center;verticalAlign=middle;resizable=0;points=[];autosize=1;strokeColor=none;fillColor=none;" parent="1" vertex="1">
          <mxGeometry x="842" y="185" width="71" height="27" as="geometry" />
        </mxCell>
        <mxCell id="tielwtdL6aNshVI9huWp-15" value="dataBit" style="text;html=1;align=center;verticalAlign=middle;resizable=0;points=[];autosize=1;strokeColor=none;fillColor=none;" parent="1" vertex="1">
          <mxGeometry x="616" y="163" width="56" height="27" as="geometry" />
        </mxCell>
        <mxCell id="tielwtdL6aNshVI9huWp-16" value="txMode" style="text;html=1;align=center;verticalAlign=middle;resizable=0;points=[];autosize=1;strokeColor=none;fillColor=none;" parent="1" vertex="1">
          <mxGeometry x="615" y="189" width="58" height="27" as="geometry" />
        </mxCell>
        <mxCell id="tielwtdL6aNshVI9huWp-21" value="txDone" style="text;html=1;align=center;verticalAlign=middle;resizable=0;points=[];autosize=1;strokeColor=none;fillColor=none;" parent="1" vertex="1">
          <mxGeometry x="848" y="239" width="57" height="27" as="geometry" />
        </mxCell>
      </root>
    </mxGraphModel>
  </diagram>
</mxfile>
